<svg width="189" height="99" viewBox="0 0 189 99" fill="none" xmlns="http://www.w3.org/2000/svg">
<path d="M39.9181 73.2439C32.5862 73.2439 26.8835 78.878 26.8835 86.1219C26.8835 93.3658 32.5862 99 39.9181 99C47.25 99 52.9526 93.3658 52.9526 86.1219C52.9526 78.878 47.25 73.2439 39.9181 73.2439ZM117.31 0H110.793V15.6951H135.233L117.31 0ZM0.814581 88.5366H17.1077C17.1077 88.5366 17.9224 64.3902 41.5474 64.3902C59.0625 64.3902 61.9138 88.5366 61.9138 88.5366H102.647V0H0L0.814581 88.5366ZM154.785 73.2439C147.453 73.2439 141.75 78.878 141.75 86.1219C141.75 93.3658 147.453 99 154.785 99C162.117 99 167.819 93.3658 167.819 86.1219C167.819 78.878 161.709 73.2439 154.785 73.2439ZM139.306 20.1219H110.793V88.5366H135.233C135.233 88.5366 131.974 68.4146 155.599 68.4146C173.522 68.4146 173.114 88.5366 173.114 88.5366H188.186L189 58.3536L139.306 20.1219ZM135.233 72.439H118.94V64.3902H135.233V72.439ZM133.603 57.9512L117.31 48.2927V25.7561H133.603L175.966 57.9512H133.603Z" fill="white" fill-opacity="0.4"/>
</svg>
